<?xml version="1.0" standalone="no"?>
<!DOCTYPE svg PUBLIC "-//W3C//DTD SVG 20010904//EN"
 "http://www.w3.org/TR/2001/REC-SVG-20010904/DTD/svg10.dtd">
<svg version="1.0" xmlns="http://www.w3.org/2000/svg"
 width="374.000000pt" height="374.000000pt" viewBox="0 0 374.000000 374.000000"
 preserveAspectRatio="xMidYMid meet">

<g transform="translate(0.000000,374.000000) scale(0.100000,-0.100000)"
fill="#000000" stroke="none">
<path d="M450 3733 c-217 -36 -404 -220 -439 -430 -9 -49 -11 -459 -9 -1473
l3 -1405 26 -67 c14 -37 41 -90 59 -118 71 -111 217 -208 347 -229 49 -9 459
-11 1473 -9 l1405 3 67 26 c37 14 90 41 118 59 111 71 208 217 229 347 9 49
11 459 9 1473 l-3 1405 -26 67 c-52 134 -139 233 -260 298 -117 62 -58 60
-1584 58 -765 0 -1401 -3 -1415 -5z m825 -865 c71 -36 1566 -1532 1604 -1604
35 -68 35 -177 1 -249 -54 -111 -147 -169 -270 -169 -124 0 -137 10 -451 321
-151 150 -279 273 -285 273 -5 0 -131 -122 -279 -271 -298 -299 -325 -319
-435 -326 -122 -9 -233 55 -287 165 -37 76 -39 184 -4 252 15 29 114 137 276
300 163 164 256 265 260 283 4 15 4 39 0 55 -4 17 -99 120 -265 287 -176 178
-263 272 -274 299 -67 162 13 340 181 402 58 22 167 13 228 -18z m1462 4 c178
-91 226 -299 105 -457 -56 -74 -132 -110 -231 -110 -63 0 -86 5 -133 28 -96
47 -157 136 -166 242 -11 143 66 259 207 312 52 19 166 11 218 -15z"/>
</g>
</svg>
